<?xml version="1.0" standalone="no"?>
<!DOCTYPE svg PUBLIC "-//W3C//DTD SVG 20010904//EN"
 "http://www.w3.org/TR/2001/REC-SVG-20010904/DTD/svg10.dtd">
<svg version="1.0" xmlns="http://www.w3.org/2000/svg"
 width="680.000000pt" height="211.000000pt" viewBox="0 0 680.000000 211.000000"
 preserveAspectRatio="xMidYMid meet">

<g transform="translate(0.000000,211.000000) scale(0.100000,-0.100000)"
fill="#000000" stroke="none">
<path d="M1096 1868 c-8 -13 -27 -50 -43 -83 -27 -57 -32 -62 -114 -105 -47
-25 -98 -53 -112 -62 -20 -14 -47 -18 -106 -18 -69 0 -84 -3 -106 -22 -26 -24
-175 -255 -175 -273 0 -6 20 -44 45 -84 l45 -73 0 -123 c0 -112 -2 -125 -24
-157 -13 -20 -35 -55 -50 -80 l-25 -44 51 -89 c28 -50 64 -113 80 -142 15 -28
36 -54 46 -59 9 -4 55 -8 102 -8 59 -1 93 -6 110 -17 14 -9 57 -33 95 -54 93
-49 100 -56 130 -135 42 -111 42 -111 241 -108 l169 3 46 94 46 93 109 60
c102 56 112 59 160 55 69 -7 122 6 142 35 53 73 145 234 145 252 0 12 -19 50
-42 85 -39 61 -49 99 -35 135 5 14 35 16 225 16 208 0 219 1 229 20 8 14 8 26
0 40 -6 11 -12 20 -13 21 -1 0 -98 4 -216 9 -161 6 -216 11 -222 22 -19 29 -8
76 30 135 59 91 59 91 3 180 -127 202 -128 203 -230 203 -62 0 -78 4 -105 24
-18 13 -67 42 -109 65 -71 39 -79 47 -104 99 -15 31 -36 69 -46 85 l-19 27
-169 0 c-165 0 -170 -1 -184 -22z m356 -138 c5 -19 14 -45 20 -58 11 -21 7
-28 -40 -74 l-51 -52 -98 3 -98 2 -51 50 -50 50 19 60 20 59 160 -2 161 -3 8
-35z m-688 -215 c26 -8 52 -13 56 -10 11 7 25 -13 50 -72 l22 -52 -54 -93 -54
-93 -55 -12 c-103 -21 -121 -18 -151 31 -33 52 -33 50 -9 84 28 40 84 130 115
185 15 26 28 47 29 47 1 0 24 -7 51 -15z m1086 -2 c0 -10 34 -69 75 -131 41
-63 75 -117 75 -122 0 -5 -14 -29 -31 -55 -24 -36 -35 -44 -52 -40 -12 3 -48
9 -81 13 l-59 7 -53 88 c-30 48 -54 92 -54 96 0 8 20 54 43 100 8 16 30 29 67
41 71 23 70 23 70 3z m-384 -108 c83 -43 154 -112 194 -191 50 -102 50 -265 0
-370 -36 -74 -119 -155 -197 -193 -37 -18 -75 -36 -83 -40 -11 -6 -16 -28 -18
-74 l-3 -66 56 -41 c55 -40 62 -50 48 -64 -5 -4 -12 -32 -18 -62 -5 -30 -13
-55 -17 -54 -5 0 -77 0 -162 0 l-154 0 -10 68 -11 67 45 40 45 40 -3 70 -3 69
-75 41 c-146 80 -238 214 -248 359 -5 80 14 164 50 226 31 53 118 139 163 162
92 48 136 58 233 54 85 -3 100 -7 168 -41z m-757 -531 l60 -6 56 -99 c61 -108
61 -107 19 -191 -22 -44 -27 -47 -79 -58 -54 -11 -75 -8 -75 11 0 5 -20 42
-43 82 -24 39 -57 95 -72 123 l-28 51 24 34 c41 58 52 70 65 65 7 -3 40 -8 73
-12z m1260 -55 c17 -28 28 -56 25 -62 -4 -7 -38 -63 -76 -125 -39 -62 -67
-119 -64 -127 4 -12 -1 -12 -36 1 -22 8 -50 14 -62 14 -17 0 -29 16 -57 73
l-36 72 57 95 c62 104 63 105 176 109 39 1 43 -1 73 -50z"/>
<path d="M1185 1620 c27 -28 34 -30 100 -30 66 0 73 2 100 30 l29 30 -129 0
-129 0 29 -30z"/>
<path d="M733 1353 c-38 -59 -73 -114 -78 -122 -7 -12 0 -13 36 -7 48 7 63 21
117 107 30 48 32 55 21 83 -7 17 -15 35 -19 39 -4 5 -39 -40 -77 -100z"/>
<path d="M1740 1419 c-8 -17 -13 -36 -13 -43 0 -14 74 -138 88 -148 11 -8 85
-11 85 -4 0 3 -17 31 -38 63 -21 32 -52 82 -68 110 -16 29 -32 53 -35 53 -4 0
-12 -14 -19 -31z"/>
<path d="M1435 1238 c-3 -7 -6 -60 -7 -118 -3 -102 -4 -104 -28 -110 -24 -6
-25 -10 -30 -91 -6 -96 -15 -114 -67 -128 -43 -12 -80 -6 -113 19 -22 17 -26
28 -30 106 -5 84 -6 88 -30 94 -25 6 -25 8 -28 119 -2 100 -5 112 -20 109 -15
-3 -17 -23 -20 -191 -1 -103 1 -202 6 -219 6 -24 28 -48 85 -91 l78 -59 -3
-132 c-3 -127 -4 -131 -25 -134 -19 -3 -23 -10 -23 -38 l0 -35 98 3 97 3 0 30
c0 26 -5 30 -37 38 l-38 9 0 118 c0 65 3 126 6 135 4 8 27 30 53 47 25 17 58
42 74 56 l27 26 0 217 c0 136 -4 220 -10 224 -6 3 -12 0 -15 -7z"/>
<path d="M667 783 c87 -152 109 -187 118 -189 6 -2 18 13 28 32 l18 36 -46 78
c-42 70 -50 78 -83 84 -64 10 -65 9 -35 -41z"/>
<path d="M1830 811 c-17 -5 -39 -30 -69 -80 l-43 -72 17 -40 c10 -21 21 -39
24 -39 3 0 18 19 32 43 15 23 45 72 68 109 22 37 41 72 41 78 0 11 -32 12 -70
1z"/>
<path d="M4263 1468 l-62 -10 -16 -71 c-9 -40 -25 -117 -36 -172 -11 -55 -33
-156 -48 -225 -68 -300 -83 -379 -78 -394 5 -13 22 -16 77 -16 84 0 74 -17
124 207 43 195 46 202 92 252 30 34 43 41 74 41 43 0 67 -18 77 -58 6 -26 -19
-170 -59 -336 -11 -43 -17 -85 -14 -92 6 -16 151 -21 160 -6 3 5 17 67 31 138
15 71 35 165 46 209 10 44 19 100 19 125 0 92 -64 160 -152 160 -61 0 -105
-18 -156 -64 -43 -40 -58 -45 -47 -18 7 17 75 319 75 335 0 9 -25 7 -107 -5z"/>
<path d="M2565 1428 c-14 -64 -25 -114 -25 -120 0 -5 48 -8 106 -8 l106 0 -7
-27 c-4 -16 -20 -89 -35 -163 -16 -74 -45 -209 -65 -300 -20 -91 -39 -180 -42
-198 l-6 -32 80 0 c53 0 84 4 91 13 6 7 29 102 51 212 23 110 56 265 74 345
l33 145 110 3 111 3 12 52 c6 29 14 62 17 75 l6 22 -306 0 -306 0 -5 -22z"/>
<path d="M4732 1433 c-9 -17 -32 -113 -32 -133 0 -6 48 -10 111 -10 l112 0 -6
-27 c-9 -41 -85 -400 -113 -533 -34 -164 -41 -150 71 -150 90 0 95 1 100 23 8
35 62 304 100 494 18 95 36 177 40 183 4 6 56 10 125 10 116 0 120 1 125 23
13 56 23 122 18 127 -2 3 -148 7 -323 8 -301 4 -319 3 -328 -15z"/>
<path d="M5423 1221 c-140 -48 -228 -157 -253 -315 -20 -127 14 -229 94 -283
58 -40 103 -53 182 -53 78 0 148 21 207 63 99 70 155 176 164 311 4 68 2 90
-17 138 -25 67 -87 128 -148 146 -58 17 -169 14 -229 -7z m174 -148 c39 -47
43 -115 12 -221 -17 -57 -30 -80 -61 -107 -32 -30 -45 -35 -86 -35 -84 0 -116
60 -100 185 10 80 32 136 67 169 53 51 128 55 168 9z"/>
<path d="M5883 1216 c3 -8 13 -49 22 -90 8 -42 24 -115 36 -163 11 -49 31
-148 44 -222 21 -120 22 -137 10 -162 -21 -40 -119 -116 -176 -136 l-50 -18 3
-70 3 -70 40 1 c22 0 67 13 99 27 125 57 197 135 313 337 143 248 313 552 313
561 0 5 -42 9 -94 9 l-93 0 -62 -125 c-33 -69 -61 -128 -61 -131 0 -2 -16 -36
-35 -75 -19 -39 -35 -77 -35 -84 0 -7 -6 -18 -14 -24 -17 -14 -26 5 -26 55 0
73 -42 379 -53 386 -7 4 -52 8 -101 8 -73 0 -87 -3 -83 -14z"/>
<path d="M3235 1207 c-113 -38 -187 -105 -238 -215 -23 -52 -31 -85 -35 -149
-6 -107 2 -146 40 -189 56 -64 98 -78 223 -78 69 0 125 6 150 15 l40 14 0 55
c0 53 -1 55 -25 52 -209 -22 -251 -10 -274 81 -5 23 -3 29 19 37 15 6 50 10
78 10 64 0 165 23 215 49 20 10 48 34 62 53 21 28 25 44 25 105 0 83 -18 116
-79 147 -48 23 -149 30 -201 13z m109 -113 c22 -21 21 -87 -2 -107 -29 -27
-87 -46 -141 -48 -28 -1 -54 1 -58 4 -14 14 30 98 70 132 45 39 103 48 131 19z"/>
<path d="M3794 1201 c-90 -33 -162 -90 -208 -164 -57 -92 -73 -243 -35 -327
26 -59 44 -77 104 -109 44 -23 61 -26 145 -25 52 0 107 6 123 12 25 11 27 16
27 70 l0 59 -47 -9 c-138 -26 -216 48 -193 184 15 94 48 146 114 180 33 17 53
20 113 16 l73 -5 20 55 c15 40 18 58 10 66 -20 20 -189 18 -246 -3z"/>
</g>
</svg>
